<svg xmlns="http://www.w3.org/2000/svg" width="108.08" height="744.69" viewBox="0 0 108.08 744.69">
  <g id="messi-blk-logo-01" transform="translate(-522.681 -48.6)">
    <path id="Path_1" data-name="Path 1" d="M597.06,86.46a27.2,27.2,0,0,0-5.48,1c-10.53,3-19.45,11.84-22,22.55-1.16,4.86-1.13,9.91-1.1,14.9l.29,42.59c0,4.23,0,8.69-2.14,12.34a11.8,11.8,0,0,1-21.7-3.37,23.468,23.468,0,0,1-.39-5.23V92.04H525.16L525,166.1c0,5.07,0,10.2,1.2,15.13,3.19,13,15.54,23.08,28.87,23.67s26.54-8.39,30.87-21c2.27-6.6,2.26-13.72,2.23-20.69q-.1-21.34-.2-42.68c0-2.66,0-5.39,1-7.85,3.36-8.19,16.76-9,20.85-1,1.92,3.73,1.44,8.16,1.43,12.2v14.57q0,17.5-.06,35v17.39a2.54,2.54,0,0,0,.49,1.84,2.64,2.64,0,0,0,1.49.56,26.29,26.29,0,0,1,17.39,11.36c.06-14.3,0-28.61-.09-42.91,0-10.8.36-21.6.28-32.41-.1-12.29,0-24.55-9.34-33.59C615.21,89.7,605.69,85.84,597.06,86.46ZM585.84,90Z"/>
    <path id="Path_2" data-name="Path 2" d="M551.53,793.29l-5.17-13.96H628.6V760.06H525.92v17.97l6.6,15.26Z"/>
    <path id="Path_3" data-name="Path 3" d="M550.83,671h-.1c-16.72.77-25.9,14-25.9,31.94-.05,20,9.35,30.39,24.63,32.46h55.67c15.28-2.07,24.68-12.5,24.64-32.46,0-17.93-9.18-31.17-25.91-31.94h-53Zm48.55,18.1a13.79,13.79,0,0,1,13.79,13.8h0a13.79,13.79,0,0,1-13.79,13.79H555.15a13.79,13.79,0,0,1-13.79-13.79h0a13.79,13.79,0,0,1,13.79-13.8Z"/>
    <path id="Path_4" data-name="Path 4" d="M536.38,486a17,17,0,0,0-6.09,3.16,21.27,21.27,0,0,0-7.6,15.88c-.32,11.7,8.47,16.16,9.44,16.94s54.9,30.93,55.08,31l.22.13-.21.13s-54.12,30.26-55.09,31a18.594,18.594,0,0,0-9.44,16.94,21.27,21.27,0,0,0,7.6,15.88,17.2,17.2,0,0,0,6.09,3.16,32.793,32.793,0,0,0,9.58.77c5.56-.14,11.13,0,16.69,0h67.29V602.72H549.09c-1.46,0-2.93.08-4.39,0a2.089,2.089,0,0,1-2.27-1.39,2.84,2.84,0,0,1,1.44-3l82.23-45.14.28-.14-.32-.14h0L543.87,507.8a2.84,2.84,0,0,1-1.44-2.95c.28-1.05,1.3-1.35,2.27-1.39,1.46-.07,2.93,0,4.39,0h80.85V485.25H562.65c-5.56,0-11.13.12-16.69,0a32.449,32.449,0,0,0-9.58.75Z"/>
    <path id="Path_5" data-name="Path 5" d="M543.83,456.41s-19-9.79-19-24.58V354.44h19Z" fill="#0582c2"/>
    <path id="Path_6" data-name="Path 6" d="M610.9,456.41s19-9.79,19-24.58V354.44h-19Z" fill="#0582c2"/>
    <rect id="Rectangle_1" data-name="Rectangle 1" width="109.37" height="19.2" transform="translate(568.21 462.94) rotate(-90)" fill="#0582c2"/>
    <rect id="Rectangle_2" data-name="Rectangle 2" width="19.29" height="19.29" transform="translate(524.55 67.89) rotate(-90)"/>
    <rect id="Rectangle_3" data-name="Rectangle 3" width="19.29" height="71.81" transform="translate(558.09 67.93) rotate(-90)"/>
    <path id="Path_7" data-name="Path 7" d="M544.55,228.87h-.19a12.45,12.45,0,0,1-3.54-.43,19.38,19.38,0,0,1-3.51-1.34,29.1,29.1,0,0,1-3.33-1.93c-1-.69-2-1.44-3-2.22s-1.71-1.43-2.53-2.19c-.65-.6-1.28-1.22-1.9-1.85-.39-.4-.77-.8-1.14-1.21-.09-.09-.17-.19-.26-.29v9.21L525,296.35c0,5.08,0,10.21,1.2,15.13,3.19,13,15.54,23.08,28.87,23.68s26.54-8.39,30.87-21c2.27-6.59,2.26-13.71,2.23-20.68q-.1-21.34-.2-42.69c0-2.65,0-5.38,1-7.84,2.31-5.64,9.77-8,15.43-5.77a10.57,10.57,0,0,1,5,3.88c1.79,2.73,1.85,6.21,1.84,9.48l-.1,69.76v9.46h19.4v-10q.12-35.39,0-70.77c0-4.84-.33-8.41-2.18-12.88a31.23,31.23,0,0,0-6.86-10.16c-5.63-5.62-13.5-9.39-21.54-9.39a28.2,28.2,0,0,0-2.91.12c-12.79,1.21-24.49,11.05-27.5,23.6-1.16,4.86-1.13,9.9-1.1,14.9l.29,42.59c0,4.23,0,8.69-2.14,12.34a12.12,12.12,0,0,1-12,5.69,12.72,12.72,0,0,1-8.75-6.24c-1.05-1.77-1.08-4.46-1.22-6.49-.18-2.41-.18-4.83-.17-7.25l.07-43V229.01A.1.1,0,0,0,544.55,228.87ZM585.84,220.26Z"/>
  </g>
</svg>
